HIERARCHY
ROOT joint_Root
{
	OFFSET 0.0 0.0 0.0
	CHANNELS 6 Xposition Yposition Zposition Zrotation Xrotation Yrotation 
	JOINT Hips
	{
		OFFSET 4.5925 91.4895 -427.239
		CHANNELS 6 Xposition Yposition Zposition Zrotation Xrotation Yrotation 
		JOINT Spine
		{
			OFFSET 15.7357 0.0 0.0
			CHANNELS 6 Xposition Yposition Zposition Zrotation Xrotation Yrotation 
			JOINT Chest
			{
				OFFSET 8.98455 -0.406207 0.0
				CHANNELS 6 Xposition Yposition Zposition Zrotation Xrotation Yrotation 
				JOINT Neck
				{
					OFFSET 16.3773 0.0 0.0
					CHANNELS 6 Xposition Yposition Zposition Zrotation Xrotation Yrotation 
					JOINT Head
					{
						OFFSET 6.45672 0.0 0.0
						CHANNELS 6 Xposition Yposition Zposition Zrotation Xrotation Yrotation 
						End Site
						{
							OFFSET 0.0 0.0 0.0
						}
					}
				}
				JOINT Shoulder_L
				{
					OFFSET 12.9942 -0.242716 4.98039
					CHANNELS 6 Xposition Yposition Zposition Zrotation Xrotation Yrotation 
					JOINT UpperArm_L
					{
						OFFSET 5.34809 0.0 0.0
						CHANNELS 6 Xposition Yposition Zposition Zrotation Xrotation Yrotation 
						JOINT LowerArm_L
						{
							OFFSET 24.3286 1.87007e-05 0.0
							CHANNELS 6 Xposition Yposition Zposition Zrotation Xrotation Yrotation 
							JOINT Hand_L
							{
								OFFSET 22.2916 0.0 0.0
								CHANNELS 6 Xposition Yposition Zposition Zrotation Xrotation Yrotation 
								End Site
								{
									OFFSET 0.0 0.0 0.0
								}
							}
						}
					}
				}
				JOINT Shoulder_R
				{
					OFFSET 12.9945 -0.242716 -4.98039
					CHANNELS 6 Xposition Yposition Zposition Zrotation Xrotation Yrotation 
					JOINT UpperArm_R
					{
						OFFSET -5.34813 0.0 0.0
						CHANNELS 6 Xposition Yposition Zposition Zrotation Xrotation Yrotation 
						JOINT LowerArm_R
						{
							OFFSET -24.3289 0.000322201 0.0
							CHANNELS 6 Xposition Yposition Zposition Zrotation Xrotation Yrotation 
							JOINT Hand_R
							{
								OFFSET -22.2915 -0.000108084 0.0
								CHANNELS 6 Xposition Yposition Zposition Zrotation Xrotation Yrotation 
								End Site
								{
									OFFSET 0.0 0.0 0.0
								}
							}
						}
					}
				}
			}
		}
		JOINT UpperLeg_L
		{
			OFFSET -2.19248 -6.46944 0.0
			CHANNELS 6 Xposition Yposition Zposition Zrotation Xrotation Yrotation 
			JOINT LowerLeg_L
			{
				OFFSET 39.0811 0.0 -1.23785e-05
				CHANNELS 6 Xposition Yposition Zposition Zrotation Xrotation Yrotation 
				JOINT Foot_L
				{
					OFFSET 40.9854 0.0 -1.26872e-05
					CHANNELS 6 Xposition Yposition Zposition Zrotation Xrotation Yrotation 
					JOINT Toes_L
					{
						OFFSET 11.7543 0.0 0.0
						CHANNELS 6 Xposition Yposition Zposition Zrotation Xrotation Yrotation 
						End Site
						{
							OFFSET 0.0 0.0 0.0
						}
					}
				}
			}
		}
		JOINT UpperLeg_R
		{
			OFFSET -2.19251 6.46944 0.0
			CHANNELS 6 Xposition Yposition Zposition Zrotation Xrotation Yrotation 
			JOINT LowerLeg_R
			{
				OFFSET -39.0811 -0.00228153 -0.0401928
				CHANNELS 6 Xposition Yposition Zposition Zrotation Xrotation Yrotation 
				JOINT Foot_R
				{
					OFFSET -40.9854 0.0 0.0
					CHANNELS 6 Xposition Yposition Zposition Zrotation Xrotation Yrotation 
					JOINT Toes_R
					{
						OFFSET -11.7543 0.0 0.0
						CHANNELS 6 Xposition Yposition Zposition Zrotation Xrotation Yrotation 
						End Site
						{
							OFFSET 0.0 0.0 0.0
						}
					}
				}
			}
		}
	}
}
MOTION
Frames:	4
Frame Time:	0.0333333
0.000000 0.000000 0.000000 0.000000 0.000000 -0.000000 3.642260 91.166000 0.204268 92.331100 -6.314960 7.361460 15.735700 0.000005 -0.000001 82.866800 83.382100 -83.329000 8.984550 -0.406207 -0.000000 5.362570 -1.630200 -0.847106 16.377300 -0.000001 -0.000001 2.788060 -1.318400 0.736394 6.456720 -0.000001 -0.000000 -4.808350 -1.261520 8.940230 12.994200 -0.242716 4.980390 -91.690900 6.499360 -75.382700 5.348090 -0.000007 -0.000001 -64.654700 32.938000 -13.109500 24.328600 0.000019 0.000005 10.608700 26.928900 -22.468700 22.291600 -0.000001 0.000005 9.896120 5.297320 0.147187 12.994500 -0.242716 -4.980390 88.437600 12.428900 -82.777600 -5.348130 -0.000001 -0.000004 -62.249600 30.645000 -8.384330 -24.328900 0.000322 -0.000009 2.774130 8.866790 -17.457500 -22.291500 -0.000108 -0.000004 13.404300 5.421610 -3.653330 -2.192480 -6.469440 -0.000000 179.052000 -17.405500 0.228116 39.081100 -0.000007 -0.000012 -0.072704 0.148664 26.060900 40.985400 -0.000006 -0.000013 3.536830 5.014450 -69.657500 11.754300 -0.000000 0.000003 -0.000183 -0.001721 -16.642600 -2.192510 6.469440 -0.000001 169.463000 18.376800 178.465000 -39.081100 -0.002282 -0.040193 -0.042625 0.081561 29.384500 -40.985400 0.000008 0.000006 3.510760 13.728000 -70.586700 -11.754300 -0.000006 -0.000006 -0.001394 -0.020855 -17.421200
0.000000 0.000000 0.000000 0.000000 0.000000 -0.000000 3.410890 91.183100 0.260493 92.182000 -6.128530 7.306180 15.735700 0.000005 -0.000001 82.744300 83.426200 -83.118500 8.984550 -0.406207 -0.000000 5.272730 -1.648740 -0.671566 16.377300 -0.000001 -0.000001 2.802610 -1.381920 0.836621 6.456720 -0.000001 -0.000000 -4.813620 -1.374120 9.002420 12.994200 -0.242716 4.980390 -91.701000 6.506290 -75.314500 5.348090 -0.000007 -0.000001 -64.480000 32.639700 -13.248100 24.328600 0.000019 0.000005 10.692500 27.061300 -22.539900 22.291600 -0.000001 0.000005 9.524810 5.310110 -0.213327 12.994500 -0.242716 -4.980390 88.425000 12.360600 -82.680700 -5.348130 -0.000001 -0.000004 -61.919800 30.746100 -8.703550 -24.328900 0.000322 -0.000009 2.809040 8.873660 -17.651200 -22.291500 -0.000108 -0.000004 13.132800 5.421650 -3.654680 -2.192480 -6.469440 -0.000000 179.395000 -17.368200 0.222000 39.081100 -0.000007 -0.000012 -0.077929 0.159097 26.096800 40.985400 -0.000006 -0.000013 3.414440 5.247920 -69.671100 11.754300 -0.000000 0.000003 -0.000185 -0.001736 -16.643200 -2.192510 6.469440 -0.000001 169.684000 18.655200 178.648000 -39.081100 -0.002282 -0.040193 -0.056899 0.107823 29.176800 -40.985400 0.000008 0.000006 3.411610 13.823900 -70.540100 -11.754300 -0.000006 -0.000006 -0.001482 -0.022031 -17.469000
0.000000 0.000000 0.000000 0.000000 0.000000 -0.000000 3.189810 91.217400 0.304717 92.062100 -6.015710 7.231680 15.735700 0.000005 -0.000001 82.790800 83.511400 -83.106600 8.984550 -0.406207 -0.000000 5.105850 -1.617830 -0.558612 16.377300 -0.000001 -0.000001 2.895300 -1.471170 0.958322 6.456720 -0.000001 -0.000000 -4.761040 -1.464240 9.086330 12.994200 -0.242716 4.980390 -91.713600 6.478810 -75.150900 5.348090 -0.000007 -0.000001 -64.256800 31.832900 -13.429000 24.328600 0.000019 0.000005 11.135300 27.384400 -23.167600 22.291600 -0.000001 0.000005 8.962930 5.317660 -0.428443 12.994500 -0.242716 -4.980390 88.398800 12.330600 -82.542300 -5.348130 -0.000001 -0.000004 -61.449800 30.681100 -9.150620 -24.328900 0.000322 -0.000009 2.889190 8.922030 -18.031800 -22.291500 -0.000108 -0.000004 12.946100 5.422550 -3.685250 -2.192480 -6.469440 -0.000000 179.672000 -17.285300 0.273609 39.081100 -0.000007 -0.000012 -0.081292 0.166816 25.980700 40.985400 -0.000006 -0.000013 3.264550 5.363750 -69.619900 11.754300 -0.000000 0.000003 -0.000203 -0.001876 -16.648300 -2.192510 6.469440 -0.000001 169.925000 18.890300 178.804000 -39.081100 -0.002282 -0.040193 -0.056712 0.108499 28.949100 -40.985400 0.000008 0.000006 3.651080 13.821300 -70.572500 -11.754300 -0.000006 -0.000006 -0.001497 -0.022237 -17.477300
0.000000 0.000000 0.000000 0.000000 0.000000 -0.000000 2.966400 91.239000 0.337742 91.972500 -5.839110 7.161400 15.735700 0.000005 -0.000001 82.748300 83.590100 -83.019900 8.984550 -0.406207 -0.000000 4.948990 -1.608330 -0.473201 16.377300 -0.000001 -0.000001 3.040730 -1.586030 1.024410 6.456720 -0.000001 -0.000000 -4.665430 -1.611620 9.164600 12.994200 -0.242716 4.980390 -91.737000 6.476750 -74.952200 5.348090 -0.000007 -0.000001 -63.313600 31.259600 -14.169300 24.328600 0.000019 0.000005 11.434700 26.962500 -24.041700 22.291600 -0.000001 0.000005 8.204330 5.324740 -0.633437 12.994500 -0.242716 -4.980390 88.353200 12.357100 -82.348600 -5.348130 -0.000001 -0.000004 -60.588200 30.327600 -10.008500 -24.328900 0.000322 -0.000009 2.975610 8.897560 -18.582500 -22.291500 -0.000108 -0.000004 12.603800 5.423810 -3.727910 -2.192480 -6.469440 -0.000000 179.917000 -17.185500 0.257600 39.081100 -0.000007 -0.000012 -0.085901 0.176550 25.945500 40.985400 -0.000006 -0.000013 3.125720 5.503890 -69.581500 11.754300 -0.000000 0.000003 -0.000191 -0.001783 -16.644900 -2.192510 6.469440 -0.000001 170.100000 19.145600 178.933000 -39.081100 -0.002282 -0.040193 -0.068787 0.131374 28.756000 -40.985400 0.000008 0.000006 3.553930 13.903200 -70.515600 -11.754300 -0.000006 -0.000006 -0.001439 -0.021457 -17.445600
